<svg width="96" height="30" viewBox="0 0 96 30" fill="none" xmlns="http://www.w3.org/2000/svg" id='logo'>
<g clip-path="url(#clip0_11218_3815)">
<path d="M29.9963 15.0001C29.9963 23.1799 23.3655 29.8108 15.1857 29.8108C14.8785 29.8108 14.5739 29.8017 14.2717 29.783C13.0046 29.7061 11.7799 29.4693 10.6186 29.0926C10.1768 28.95 9.74375 28.7861 9.32137 28.6042C4.05823 26.333 0.375 21.0967 0.375 15.0001C0.375 6.82031 7.00585 0.189453 15.1857 0.189453C23.3655 0.189453 29.9963 6.82031 29.9963 15.0001Z" fill="#33ADC1"/>
<path d="M14.2728 29.783C12.5232 29.6765 10.856 29.2661 9.32243 28.6042C15.0579 20.8719 5.12891 13.507 5.12891 13.507L6.57594 13.1497L10.1349 12.2715C10.1349 12.2713 20.8487 18.8067 14.2728 29.783Z" fill="#EAE0D3"/>
<path d="M10.6196 29.0923C10.1778 28.9497 9.74481 28.7859 9.32243 28.6039C15.0579 20.8716 5.12891 13.5067 5.12891 13.5067L6.57594 13.1494C6.92668 13.4118 7.41753 13.7533 7.91856 14.2217C10.5301 16.6611 14.3187 21.8522 10.6196 29.0923Z" fill="#D6C8B0"/>
<path d="M13.7077 8.43209C13.7077 11.6299 11.1155 14.222 7.91751 14.222C4.71971 14.222 2.12757 11.6299 2.12757 8.43209C2.12757 7.95456 2.18498 7.49083 2.29436 7.04698C2.40306 6.60335 2.56329 6.17962 2.76759 5.783L0.375 3.39041L4.29597 3.91449L2.28464 1.42089L6.88269 2.73391L6.38143 0.189453C6.38143 0.189453 10.3815 2.40192 12.2821 4.62727C12.4261 4.79225 12.5603 4.96581 12.6853 5.1466C13.3298 6.07995 13.7077 7.2115 13.7077 8.43209Z" fill="#EAE0D3"/>
<path d="M11.0293 7.25014C11.0293 8.0332 10.3945 8.66824 9.61146 8.66824C8.82817 8.66824 8.19336 8.0332 8.19336 7.25014C8.19336 6.46684 8.82817 5.83203 9.61146 5.83203C10.3945 5.83203 11.0293 6.46684 11.0293 7.25014Z" fill="#2F373B"/>
<path d="M24.3213 8.18568C23.7391 8.48987 23.1255 8.42094 22.6329 8.25754C22.0568 8.06726 21.6469 7.74929 21.6469 7.74929C21.6469 7.74929 19.5734 5.71377 21.1687 4.82765C21.6505 4.56053 22.0405 4.56166 22.3499 4.69454H22.3506C23.067 5.00167 23.3547 6.00937 23.3547 6.00937C23.3547 6.00937 23.9321 4.51217 25.2094 4.96551C26.486 5.41817 25.583 7.52623 24.3213 8.18568Z" fill="#FF648D"/>
<path d="M22.6329 8.25755C22.0568 8.06726 21.6469 7.74929 21.6469 7.74929C21.6469 7.74929 19.5734 5.71377 21.1687 4.82765C21.6505 4.56053 22.0405 4.56166 22.3499 4.69454C21.6439 4.65477 21.6215 7.25662 22.6329 8.25755Z" fill="#EA2F69"/>
<path d="M10.6256 6.79744C10.6256 7.04219 10.4272 7.24061 10.1824 7.24061C9.93768 7.24061 9.73926 7.04219 9.73926 6.79744C9.73926 6.55291 9.93768 6.35449 10.1824 6.35449C10.4272 6.35449 10.6256 6.55291 10.6256 6.79744Z" fill="white"/>
<path d="M22.1648 8.87158C22.1648 11.0316 16.2856 17.5899 20.1261 20.3077C21.0862 20.9873 22.1458 21.2088 23.1956 21.159C24.2451 21.209 25.3048 20.9873 26.265 20.3077C30.1053 17.5899 24.2261 11.0316 24.2261 8.87158" fill="#FF648D"/>
<path d="M23.0367 21.1638C22.0387 21.1855 21.0375 20.9529 20.1261 20.3077C16.2856 17.5899 22.165 11.0314 22.165 8.87158H22.7951C22.7951 11.0314 20.5105 17.5899 22.003 20.3077C22.3277 20.8989 22.6819 21.1439 23.0367 21.1638Z" fill="#EA2F69"/>
<path d="M23.0371 21.1639C23.0898 21.1635 23.1424 21.1614 23.1951 21.1592C23.1424 21.1657 23.0898 21.1675 23.0371 21.1639Z" fill="#EA2F69"/>
<path d="M23.354 21.1639C23.3014 21.1675 23.2489 21.1657 23.1963 21.1592C23.2489 21.1614 23.3014 21.1635 23.354 21.1639Z" fill="#EA2F69"/>
<path d="M27.0603 8.4911L12.4076 10.9133C12.4076 10.9133 11.8962 10.1377 11.71 9.10942C11.5443 8.19256 11.6374 7.07458 12.5848 6.12744L27.0603 8.4911Z" fill="#FFD62C"/>
<path d="M27.0613 8.49121L12.4086 10.9134C12.4086 10.9134 11.8972 10.1378 11.7109 9.10953L27.0613 8.49121Z" fill="#FFB92E"/>
<path d="M7.91751 14.222C4.71971 14.222 2.12757 11.6299 2.12757 8.4321C2.12757 7.95457 2.18498 7.49084 2.29436 7.04699C2.40306 6.60336 2.56329 6.17963 2.76759 5.78301L0.375 3.39043L4.29597 3.9145L2.28464 1.4209L6.97218 4.05959C6.97218 4.05959 4.07699 5.12356 4.07699 8.49131C4.07699 11.8591 7.91751 14.222 7.91751 14.222Z" fill="#D6C8B0"/>
</g>
<path d="M90.5951 21.4467C89.7958 21.4467 89.0786 21.2496 88.4436 20.8554C87.8085 20.4503 87.3049 19.9083 86.9326 19.2295C86.5713 18.5397 86.3906 17.7623 86.3906 16.8973C86.3906 16.0323 86.5877 15.255 86.9819 14.5652C87.387 13.8754 87.929 13.3334 88.6078 12.9392C89.2976 12.5341 90.0695 12.3315 90.9236 12.3315C91.7776 12.3315 92.544 12.5341 93.2229 12.9392C93.9017 13.3334 94.4382 13.8754 94.8324 14.5652C95.2375 15.255 95.4401 16.0323 95.4401 16.8973H94.7996C94.7996 17.7623 94.6134 18.5397 94.2412 19.2295C93.8798 19.9083 93.3816 20.4503 92.7466 20.8554C92.1115 21.2496 91.3944 21.4467 90.5951 21.4467ZM90.9236 19.9686C91.482 19.9686 91.9802 19.8372 92.4181 19.5744C92.8561 19.3007 93.201 18.9339 93.4528 18.474C93.7046 18.0032 93.8306 17.4776 93.8306 16.8973C93.8306 16.3061 93.7046 15.7805 93.4528 15.3207C93.201 14.8498 92.8561 14.483 92.4181 14.2203C91.9802 13.9465 91.482 13.8097 90.9236 13.8097C90.3761 13.8097 89.8779 13.9465 89.429 14.2203C88.991 14.483 88.6407 14.8498 88.3779 15.3207C88.1261 15.7805 88.0001 16.3061 88.0001 16.8973C88.0001 17.4776 88.1261 18.0032 88.3779 18.474C88.6407 18.9339 88.991 19.3007 89.429 19.5744C89.8779 19.8372 90.3761 19.9686 90.9236 19.9686ZM94.6025 21.3974C94.3616 21.3974 94.159 21.3208 93.9948 21.1675C93.8415 21.0033 93.7649 20.8007 93.7649 20.5598V18.047L94.0769 16.3061L95.4401 16.8973V20.5598C95.4401 20.8007 95.358 21.0033 95.1937 21.1675C95.0404 21.3208 94.8434 21.3974 94.6025 21.3974Z" fill="black"/>
<path d="M85.1886 21.184C85.0463 21.3153 84.8437 21.381 84.5809 21.381C84.3291 21.3701 84.132 21.2934 83.9897 21.1511L79.9987 16.8645L83.7597 12.6601C83.9021 12.5068 84.0992 12.4192 84.351 12.3973C84.6138 12.3754 84.8163 12.4301 84.9587 12.5615C85.1229 12.7148 85.216 12.89 85.2379 13.0871C85.2598 13.2732 85.1996 13.4429 85.0572 13.5962L82.0845 16.7824L85.2379 20.1657C85.3802 20.308 85.4514 20.4777 85.4514 20.6748C85.4514 20.861 85.3638 21.0307 85.1886 21.184ZM78.6848 21.3975C78.4439 21.3975 78.2523 21.3208 78.11 21.1675C77.9677 21.0033 77.8965 20.8007 77.8965 20.5599V13.2349C77.8965 12.983 77.9677 12.7805 78.11 12.6272C78.2523 12.4739 78.4439 12.3973 78.6848 12.3973C78.9367 12.3973 79.1392 12.4739 79.2925 12.6272C79.4567 12.7805 79.5389 12.983 79.5389 13.2349V15.9776H81.6411V17.5215H79.5389V20.5599C79.5389 20.8007 79.4567 21.0033 79.2925 21.1675C79.1392 21.3208 78.9367 21.3975 78.6848 21.3975Z" fill="black"/>
<path d="M71.753 21.4467C70.8442 21.4467 70.034 21.2551 69.3223 20.8719C68.6216 20.4777 68.0686 19.9412 67.6635 19.2623C67.2693 18.5725 67.0723 17.7842 67.0723 16.8973C67.0723 15.9995 67.2584 15.2112 67.6307 14.5323C68.0139 13.8425 68.5394 13.306 69.2073 12.9228C69.8752 12.5286 70.6417 12.3315 71.5067 12.3315C72.3607 12.3315 73.0943 12.5232 73.7074 12.9064C74.3206 13.2786 74.7859 13.7987 75.1035 14.4666C75.4319 15.1236 75.5962 15.8845 75.5962 16.7495C75.5962 16.9576 75.525 17.1327 75.3827 17.2751C75.2403 17.4065 75.0597 17.4722 74.8407 17.4722H68.2219V16.1583H74.7914L74.118 16.6181C74.1071 16.0707 73.9976 15.5834 73.7896 15.1564C73.5815 14.7185 73.2859 14.3736 72.9027 14.1217C72.5195 13.8699 72.0541 13.744 71.5067 13.744C70.8826 13.744 70.3461 13.8808 69.8971 14.1546C69.4592 14.4283 69.1252 14.806 68.8953 15.2878C68.6654 15.7586 68.5504 16.2951 68.5504 16.8973C68.5504 17.4995 68.6873 18.036 68.961 18.5069C69.2347 18.9777 69.6125 19.3499 70.0942 19.6237C70.576 19.8974 71.1289 20.0343 71.753 20.0343C72.0924 20.0343 72.4373 19.974 72.7877 19.8536C73.149 19.7222 73.4392 19.5744 73.6582 19.4102C73.8224 19.2897 73.9976 19.2295 74.1837 19.2295C74.3808 19.2185 74.5505 19.2733 74.6929 19.3937C74.879 19.558 74.9775 19.7386 74.9885 19.9357C74.9994 20.1328 74.9118 20.3025 74.7257 20.4449C74.3534 20.7405 73.8881 20.9814 73.3297 21.1675C72.7822 21.3536 72.2567 21.4467 71.753 21.4467Z" fill="black"/>
<path d="M61.0952 12.4131C61.2594 12.4131 61.4073 12.4569 61.5386 12.5445C61.67 12.6321 61.774 12.7689 61.8507 12.9551L65.234 20.2965C65.3325 20.5154 65.3435 20.7125 65.2668 20.8877C65.1902 21.052 65.0588 21.1779 64.8727 21.2655C64.6318 21.375 64.4237 21.4023 64.2486 21.3476C64.0734 21.2928 63.9256 21.156 63.8051 20.937L60.7175 13.9241H61.5551L58.3689 20.937C58.2703 21.145 58.1225 21.2819 57.9254 21.3476C57.7393 21.4023 57.5313 21.375 57.3013 21.2655C57.0933 21.1669 56.9455 21.0355 56.8579 20.8713C56.7812 20.7071 56.7977 20.5154 56.9072 20.2965L60.3069 12.9551C60.4711 12.5937 60.7339 12.4131 61.0952 12.4131Z" fill="black"/>
<path d="M51.5841 21.4467C50.6753 21.4467 49.8651 21.2551 49.1534 20.8719C48.4526 20.4777 47.8997 19.9412 47.4946 19.2623C47.1004 18.5725 46.9033 17.7842 46.9033 16.8973C46.9033 15.9995 47.0895 15.2112 47.4617 14.5323C47.8449 13.8425 48.3705 13.306 49.0384 12.9228C49.7063 12.5286 50.4727 12.3315 51.3377 12.3315C52.1918 12.3315 52.9253 12.5232 53.5385 12.9064C54.1516 13.2786 54.617 13.7987 54.9345 14.4666C55.263 15.1236 55.4272 15.8845 55.4272 16.7495C55.4272 16.9576 55.3561 17.1327 55.2137 17.2751C55.0714 17.4065 54.8907 17.4722 54.6717 17.4722H48.053V16.1583H54.6225L53.9491 16.6181C53.9381 16.0707 53.8286 15.5834 53.6206 15.1564C53.4126 14.7185 53.117 14.3736 52.7337 14.1217C52.3505 13.8699 51.8852 13.744 51.3377 13.744C50.7136 13.744 50.1771 13.8808 49.7282 14.1546C49.2902 14.4283 48.9563 14.806 48.7264 15.2878C48.4964 15.7586 48.3815 16.2951 48.3815 16.8973C48.3815 17.4995 48.5183 18.036 48.792 18.5069C49.0658 18.9777 49.4435 19.3499 49.9253 19.6237C50.407 19.8974 50.96 20.0343 51.5841 20.0343C51.9235 20.0343 52.2684 19.974 52.6188 19.8536C52.9801 19.7222 53.2702 19.5744 53.4892 19.4102C53.6535 19.2897 53.8286 19.2295 54.0148 19.2295C54.2119 19.2185 54.3816 19.2733 54.5239 19.3937C54.7101 19.558 54.8086 19.7386 54.8195 19.9357C54.8305 20.1328 54.7429 20.3025 54.5568 20.4449C54.1845 20.7405 53.7192 20.9814 53.1608 21.1675C52.6133 21.3536 52.0877 21.4467 51.5841 21.4467Z" fill="black"/>
<path d="M35.5325 21.3811C35.226 21.3811 34.9906 21.2497 34.8263 20.9869C34.6621 20.7242 34.6457 20.445 34.777 20.1493L39.3921 9.12903C39.5563 8.74581 39.8246 8.5542 40.1969 8.5542C40.591 8.5542 40.8593 8.74581 41.0016 9.12903L45.6331 20.1822C45.7536 20.4888 45.7371 20.768 45.5838 21.0198C45.4415 21.2607 45.2116 21.3811 44.894 21.3811C44.7298 21.3811 44.571 21.3373 44.4178 21.2497C44.2754 21.1512 44.1714 21.0198 44.1057 20.8556L39.9998 10.7386H40.5253L36.3209 20.8556C36.2442 21.0307 36.1293 21.1621 35.976 21.2497C35.8336 21.3373 35.6858 21.3811 35.5325 21.3811Z" fill="black"/>
<defs>
<clipPath id="clip0_11218_3815">
<rect width="29.6213" height="29.6213" fill="white" transform="translate(0.375 0.189453)"/>
</clipPath>
</defs>
</svg>
